<svg width="86" height="86" viewBox="0 0 86 86" fill="none" xmlns="http://www.w3.org/2000/svg">
<path d="M34.8156 35.4072L34.2694 35.3981C34.2694 35.3981 33.7906 33.919 31.0303 33.8103C28.8448 33.7239 26.5977 33.8728 24.6237 34.1941C23.086 34.4438 22.4598 35.4487 22.1397 35.4431L21.2244 35.4284L20.3091 35.443C19.989 35.4486 19.3627 34.4437 17.8251 34.194C15.8511 33.8727 13.604 33.7238 11.4185 33.8102C8.6582 33.9189 8.17939 35.398 8.17939 35.398L7.63314 35.4071C7.08388 35.4159 6.64571 35.8686 6.65493 36.418L6.67206 37.4862C6.67883 37.8975 6.93818 38.263 7.32462 38.4039L7.68072 38.5341C7.68072 38.5341 8.27614 40.436 9.20285 42.0318C10.5209 44.3009 12.9136 44.4765 15.4171 44.2189C18.9051 43.8597 19.6291 40.5503 19.9186 39.5689C20.4827 37.6551 21.2245 37.8712 21.2245 37.8712C21.2245 37.8712 21.9662 37.6551 22.5304 39.5689C22.8199 40.5503 23.5439 43.8597 27.0319 44.2189C29.5354 44.4765 31.928 44.3009 33.246 42.0318C34.1728 40.4361 34.7681 38.5341 34.7681 38.5341L35.1243 38.4039C35.5107 38.263 35.7701 37.8975 35.7768 37.4862L35.794 36.418C35.8031 35.8687 35.3649 35.416 34.8156 35.4072ZM18.0564 39.4687C17.8892 39.9174 17.6895 40.3542 17.4711 40.7846C17.0107 41.6915 16.3354 42.3513 15.2305 42.46C14.7731 42.505 14.3739 42.5296 14.0104 42.5357C11.8939 42.5699 11.2109 41.936 10.7878 41.2461C10.1301 40.1719 9.8281 39.227 9.71405 38.4658C9.39055 36.3067 11.4531 35.9455 13.0817 36.0208C14.443 36.0838 16.0266 36.0658 17.3522 36.3884C17.9735 36.5396 18.3595 36.9835 18.4196 37.4554C18.5071 38.1401 18.3627 38.6481 18.0564 39.4687ZM32.7348 38.4658C32.6207 39.227 32.3187 40.1718 31.661 41.246C31.238 41.936 30.555 42.5699 28.4384 42.5356C28.0749 42.5296 27.6757 42.5049 27.2183 42.4599C26.1135 42.3512 25.4382 41.6915 24.9778 40.7845C24.7593 40.3541 24.5597 39.9173 24.3925 39.4686C24.0861 38.6481 23.9418 38.14 24.0291 37.4552C24.0893 36.9834 24.4753 36.5395 25.0966 36.3882C26.4222 36.0657 28.0058 36.0836 29.3671 36.0206C30.9957 35.9455 33.0583 36.3066 32.7348 38.4658Z" fill="black"/>
<path d="M44.5769 40.3331L44.1315 37.876H42.0276L41.613 40.3331H39.4169L41.5055 29.6906H44.7151L46.773 40.3331H44.5769ZM42.3501 35.9256H43.7937L43.0565 31.8099L42.3501 35.9256Z" fill="black"/>
<path d="M47.5448 29.6906H49.8791V40.3331H47.5448V29.6906Z" fill="black"/>
<path d="M55.3031 32.1477C55.3031 31.9634 55.257 31.8252 55.1649 31.7331C55.083 31.6307 54.9192 31.5795 54.6734 31.5795H53.5677V38.352H54.6734C55.0932 38.352 55.3031 38.1166 55.3031 37.6456V32.1477ZM51.2641 29.6906H54.9959C55.8252 29.6906 56.4651 29.8902 56.9156 30.2895C57.3763 30.6888 57.6067 31.2775 57.6067 32.0556V37.8299C57.6067 39.4987 56.7825 40.3331 55.1342 40.3331H51.2641V29.6906Z" fill="black"/>
<path d="M63.3835 40.3331L62.9382 37.876H60.8342L60.4196 40.3331H58.2235L60.3121 29.6906H63.5217L65.5796 40.3331H63.3835ZM61.1567 35.9256H62.6003L61.8631 31.8099L61.1567 35.9256Z" fill="black"/>
<path d="M39.084 42.6419H39.9286L37.7018 47.7712L40.0361 52.8698H39.1761L36.8572 47.8019L39.084 42.6419Z" fill="black"/>
<path d="M45.4564 44.8379C45.4564 43.7322 44.8984 43.1794 43.7824 43.1794C42.6665 43.1794 42.1085 43.7322 42.1085 44.8379V50.6737C42.1085 51.7794 42.6665 52.3323 43.7824 52.3323C44.8984 52.3323 45.4564 51.7794 45.4564 50.6737V44.8379ZM41.3406 44.8379C41.3406 44.1417 41.5454 43.5786 41.9549 43.1486C42.3645 42.7084 42.9736 42.4883 43.7824 42.4883C44.5913 42.4883 45.2004 42.7084 45.61 43.1486C46.0195 43.5786 46.2242 44.1417 46.2242 44.8379V50.6737C46.2242 51.3699 46.0195 51.9381 45.61 52.3783C45.2004 52.8083 44.5913 53.0233 43.7824 53.0233C42.9736 53.0233 42.3645 52.8083 41.9549 52.3783C41.5454 51.9381 41.3406 51.3699 41.3406 50.6737V44.8379Z" fill="black"/>
<path d="M48.378 42.6419H49.1458V52.8698H48.378V42.6419ZM52.4016 42.6419H53.2462L51.0194 47.7712L53.3537 52.8698H52.4937L50.1748 47.8019L52.4016 42.6419Z" fill="black"/>
<path d="M54.8118 42.6419H55.5797V52.8698H54.8118V42.6419ZM58.8354 42.6419H59.6801L57.4533 47.7712L59.7876 52.8698H58.9276L56.6086 47.8019L58.8354 42.6419Z" fill="black"/>
<path d="M65.2078 44.8379C65.2078 43.7322 64.6498 43.1794 63.5339 43.1794C62.4179 43.1794 61.86 43.7322 61.86 44.8379V50.6737C61.86 51.7794 62.4179 52.3323 63.5339 52.3323C64.6498 52.3323 65.2078 51.7794 65.2078 50.6737V44.8379ZM61.0921 44.8379C61.0921 44.1417 61.2969 43.5786 61.7064 43.1486C62.1159 42.7084 62.7251 42.4883 63.5339 42.4883C64.3427 42.4883 64.9519 42.7084 65.3614 43.1486C65.7709 43.5786 65.9757 44.1417 65.9757 44.8379V50.6737C65.9757 51.3699 65.7709 51.9381 65.3614 52.3783C64.9519 52.8083 64.3427 53.0233 63.5339 53.0233C62.7251 53.0233 62.1159 52.8083 61.7064 52.3783C61.2969 51.9381 61.0921 51.3699 61.0921 50.6737V44.8379Z" fill="black"/>
<path d="M41.7782 24.134L34.6115 54.3366" stroke="black" stroke-width="0.7"/>
<path d="M83.6382 72.2364L69.3083 57.9065C73.0641 52.0518 75.2504 45.0965 75.2504 37.6252C75.2504 16.8453 58.4051 0 37.6252 0C16.8453 0 0 16.8453 0 37.6252C0 58.4051 16.8453 75.2504 37.6252 75.2504C45.0965 75.2504 52.0518 73.0641 57.9066 69.3083L72.2364 83.6382C75.3862 86.7879 80.4898 86.7879 83.6382 83.6382C86.7866 80.4884 86.7879 75.3861 83.6382 72.2364ZM37.6252 72.5629C18.3302 72.5629 2.68752 56.9202 2.68752 37.6252C2.68752 18.3302 18.3302 2.68752 37.6252 2.68752C56.9202 2.68752 72.5629 18.3302 72.5629 37.6252C72.5629 56.9202 56.9202 72.5629 37.6252 72.5629Z" fill="black"/>
</svg>
