<?xml version="1.0" encoding="UTF-8"?>
<svg width="32" height="32" viewBox="0 0 32 32" fill="none" xmlns="http://www.w3.org/2000/svg">
  <path d="M13 13.5C13 13.5 12.6 12.4 10.5 12.3C8.9 12.2 7.3 12.4 6 12.7C4.9 12.9 4.5 13.7 4.3 13.7L3.7 13.7L3.1 13.7C2.9 13.7 2.5 12.9 1.4 12.7C0.1 12.4 -1.5 12.2 -3.1 12.3C-5.2 12.4 -5.6 13.5 -5.6 13.5L-6.2 13.5C-6.8 13.5 -7.2 13.9 -7.2 14.4L-7.2 15.5C-7.2 15.8 -7 16.1 -6.7 16.2L-6.4 16.3C-6.4 16.3 -5.9 17.7 -5.2 18.9C-4.2 20.5 -2.4 20.6 -0.5 20.4C2.7 20.1 3.3 17.5 3.5 16.8C4 15.3 4.7 15.5 4.7 15.5C4.7 15.5 5.4 15.3 5.9 16.8C6.1 17.5 6.7 20.1 9.9 20.4C11.8 20.6 13.6 20.5 14.6 18.9C15.3 17.7 15.8 16.3 15.8 16.3L16.1 16.2C16.4 16.1 16.6 15.8 16.6 15.5L16.6 14.4C16.6 13.9 16.2 13.5 13 13.5Z" fill="black"/>
  <path d="M16.5 15.1L16.2 14.1H15.2L14.9 15.1H13.9L15.2 11.1H17.2L18.5 15.1H16.5ZM15.7 13.4H16.7L16.1 11.9L15.7 13.4Z" fill="black"/>
  <path d="M17.7 11.1H19.7V15.1H17.7V11.1Z" fill="black"/>
  <path d="M20.6 12C20.6 11.8 20.6 11.7 20.5 11.6C20.4 11.5 20.3 11.5 20.1 11.5H19.7V14.3H20.1C20.4 14.3 20.6 14.1 20.6 13.8V12ZM19.1 12C19.1 11.5 19.2 11.1 19.5 10.8C19.8 10.5 20.2 10.4 20.6 10.4C21 10.4 21.4 10.5 21.7 10.8C22 11.1 22.1 11.5 22.1 12V13.8C22.1 15.1 21.5 15.1 20.6 15.1H19.1V12Z" fill="black"/>
</svg> 