<svg xmlns="http://www.w3.org/2000/svg" version="1.1" xmlns:xlink="http://www.w3.org/1999/xlink" width="168" height="168"><svg width="168" height="168" viewBox="0 0 168 168" fill="none" xmlns="http://www.w3.org/2000/svg">
<path d="M68.0116 69.167L66.9445 69.1491C66.9445 69.1491 66.0093 66.2597 60.6169 66.0475C56.3477 65.8787 51.9581 66.1696 48.1019 66.7973C45.0981 67.2849 43.8747 69.2481 43.2494 69.2372L41.4614 69.2083L39.6734 69.237C39.048 69.2479 37.8246 67.2848 34.8209 66.7971C30.9647 66.1693 26.5751 65.8785 22.3059 66.0473C16.9136 66.2596 15.9783 69.1489 15.9783 69.1489L14.9112 69.1668C13.8382 69.1839 12.9823 70.0682 13.0003 71.1415L13.0337 73.2282C13.047 74.0317 13.5536 74.7457 14.3085 75.021L15.0041 75.2752C15.0041 75.2752 16.1673 78.9907 17.9776 82.108C20.5524 86.5405 25.2264 86.8835 30.117 86.3803C36.9306 85.6788 38.345 79.2139 38.9105 77.2968C40.0126 73.5581 41.4616 73.9804 41.4616 73.9804C41.4616 73.9804 42.9105 73.5581 44.0126 77.2968C44.5781 79.2139 45.9925 85.6788 52.8061 86.3803C57.6967 86.8835 62.3706 86.5405 64.9454 82.108C66.7557 78.9908 67.9187 75.2752 67.9187 75.2752L68.6145 75.021C69.3693 74.7457 69.876 74.0317 69.8893 73.2282L69.9227 71.1415C69.9405 70.0685 69.0846 69.1841 68.0116 69.167ZM35.2727 77.101C34.9461 77.9775 34.5561 78.8308 34.1294 79.6715C33.23 81.4433 31.9108 82.732 29.7525 82.9444C28.8589 83.0323 28.0792 83.0805 27.3691 83.0923C23.2345 83.1592 21.9003 81.9209 21.0738 80.5731C19.7889 78.4746 19.199 76.6289 18.9762 75.1419C18.3443 70.9241 22.3735 70.2185 25.5549 70.3656C28.2141 70.4886 31.3077 70.4535 33.8972 71.0836C35.1109 71.3791 35.865 72.2463 35.9824 73.168C36.1532 74.5056 35.8712 75.4979 35.2727 77.101ZM63.9467 75.1418C63.7239 76.6288 63.1339 78.4745 61.8491 80.573C61.0227 81.9209 59.6885 83.1591 55.5538 83.0921C54.8437 83.0804 54.0639 83.0322 53.1704 82.9443C51.0121 82.7319 49.6929 81.4432 48.7935 79.6714C48.3668 78.8307 47.9768 77.9774 47.6502 77.1009C47.0517 75.4979 46.7697 74.5054 46.9404 73.1676C47.0579 72.246 47.8119 71.3788 49.0256 71.0833C51.6152 70.4532 54.7087 70.4883 57.368 70.3653C60.5493 70.2185 64.5786 70.924 63.9467 75.1418Z" fill="black"></path>
<path d="M87.08 78.79L86.21 73.99H82.1L81.29 78.79H77L81.08 58H87.35L91.37 78.79H87.08ZM82.73 70.18H85.55L84.11 62.14L82.73 70.18Z" fill="black"></path>
<path d="M92.8777 58H97.4377V78.79H92.8777V58Z" fill="black"></path>
<path d="M108.033 62.8C108.033 62.44 107.943 62.17 107.763 61.99C107.603 61.79 107.283 61.69 106.803 61.69H104.643V74.92H106.803C107.623 74.92 108.033 74.46 108.033 73.54V62.8ZM100.143 58H107.433C109.053 58 110.303 58.39 111.183 59.17C112.083 59.95 112.533 61.1 112.533 62.62V73.9C112.533 77.16 110.923 78.79 107.703 78.79H100.143V58Z" fill="black"></path>
<path d="M123.818 78.79L122.948 73.99H118.838L118.028 78.79H113.738L117.818 58H124.088L128.108 78.79H123.818ZM119.468 70.18H122.288L120.848 62.14L119.468 70.18Z" fill="black"></path>
<path d="M76.35 83.3H78L73.65 93.32L78.21 103.28H76.53L72 93.38L76.35 83.3Z" fill="black"></path>
<path d="M88.7984 87.59C88.7984 85.43 87.7084 84.35 85.5284 84.35C83.3484 84.35 82.2584 85.43 82.2584 87.59V98.99C82.2584 101.15 83.3484 102.23 85.5284 102.23C87.7084 102.23 88.7984 101.15 88.7984 98.99V87.59ZM80.7584 87.59C80.7584 86.23 81.1584 85.13 81.9584 84.29C82.7584 83.43 83.9484 83 85.5284 83C87.1084 83 88.2984 83.43 89.0984 84.29C89.8984 85.13 90.2984 86.23 90.2984 87.59V98.99C90.2984 100.35 89.8984 101.46 89.0984 102.32C88.2984 103.16 87.1084 103.58 85.5284 103.58C83.9484 103.58 82.7584 103.16 81.9584 102.32C81.1584 101.46 80.7584 100.35 80.7584 98.99V87.59Z" fill="black"></path>
<path d="M94.5056 83.3H96.0056V103.28H94.5056V83.3ZM102.366 83.3H104.016L99.6656 93.32L104.226 103.28H102.546L98.0156 93.38L102.366 83.3Z" fill="black"></path>
<path d="M107.074 83.3H108.574V103.28H107.074V83.3ZM114.934 83.3H116.584L112.234 93.32L116.794 103.28H115.114L110.584 93.38L114.934 83.3Z" fill="black"></path>
<path d="M127.382 87.59C127.382 85.43 126.292 84.35 124.112 84.35C121.932 84.35 120.842 85.43 120.842 87.59V98.99C120.842 101.15 121.932 102.23 124.112 102.23C126.292 102.23 127.382 101.15 127.382 98.99V87.59ZM119.342 87.59C119.342 86.23 119.742 85.13 120.542 84.29C121.342 83.43 122.532 83 124.112 83C125.692 83 126.882 83.43 127.682 84.29C128.482 85.13 128.882 86.23 128.882 87.59V98.99C128.882 100.35 128.482 101.46 127.682 102.32C126.882 103.16 125.692 103.58 124.112 103.58C122.532 103.58 121.342 103.16 120.542 102.32C119.742 101.46 119.342 100.35 119.342 98.99V87.59Z" fill="black"></path>
<line x1="81.4865" y1="47.1154" x2="67.4865" y2="106.115" stroke="#FF9A00"></line>
<path d="M163.385 141.112L135.392 113.119C142.729 101.682 147 88.095 147 73.5C147 32.907 114.093 0 73.5 0C32.907 0 0 32.907 0 73.5C0 114.093 32.907 147 73.5 147C88.095 147 101.682 142.729 113.119 135.392L141.112 163.385C147.265 169.538 157.235 169.538 163.385 163.385C169.536 157.232 169.538 147.265 163.385 141.112ZM73.5 141.75C35.8076 141.75 5.25 111.192 5.25 73.5C5.25 35.8076 35.8076 5.25 73.5 5.25C111.192 5.25 141.75 35.8076 141.75 73.5C141.75 111.192 111.192 141.75 73.5 141.75Z" fill="#250012"></path>
</svg><style>@media (prefers-color-scheme: light) { :root { filter: contrast(1) brightness(1); } }
@media (prefers-color-scheme: dark) { :root { filter: none; } }
</style></svg>